Patient4_TMGait_0pt6_02_left_01_GRF.mot
version=1
nRows=32
nColumns=19
inDegrees=no
endheader
time	F1x	F1y	F1z	M1x	M1y	M1z	F2x	F2y	F2z	M2x	M2y	M2z	EC1x	EC1y	EC1z	EC2x	EC2y	EC2z
1.17	6.5379	3.5788	6.6567	-1.9534	-4.4882	-1.4004	-0.26584	770.2793	-55.9001	281.4586	49.1465	731.8875	-0.0592	0.0182	-0.0073	-0.0462	0.0165	0.9585
1.1813	4.2112	3.1518	4.4569	-1.6025	-3.127	-0.11679	-3.9568	776.8984	-54.8529	283.804	50.3527	734.8802	-0.0592	0.0182	-0.0073	-0.0462	0.0165	0.9585
1.1926	2.2446	2.8266	2.6258	-1.321	-1.9856	0.96788	-7.233	783.8384	-54.1322	286.1485	51.5426	738.0323	-0.0592	0.0182	-0.0073	-0.0462	0.0165	0.9585
1.2039	0.72932	2.6342	1.248	-1.1299	-1.1258	1.8338	-9.8251	790.09	-53.8282	288.1363	52.6496	740.542	-0.0592	0.0182	-0.0073	-0.0462	0.0165	0.9585
1.2151	-0.32098	2.5378	0.31857	-1.0181	-0.54308	2.4401	-11.6049	794.7065	-53.9321	289.4427	53.6217	741.5957	-0.0592	0.0182	-0.0073	-0.0462	0.0165	0.9585
1.2264	-0.99327	2.5231	-0.2493	-0.96913	-0.18766	2.8534	-12.514	797.0145	-54.369	289.8478	54.4062	740.5834	-0.0592	0.0182	-0.0073	-0.0462	0.0165	0.9585
1.2377	-1.3629	2.5232	-0.52707	-0.9509	-0.016102	3.0666	-12.6036	796.6709	-55.0233	289.2562	54.9606	737.175	-0.0592	0.0182	-0.0073	-0.0462	0.0165	0.9585
1.249	-1.5473	2.5014	-0.61376	-0.93711	0.026544	3.1369	-11.9296	793.6975	-55.7743	287.7025	55.2413	731.3677	-0.0592	0.0182	-0.0073	-0.0462	0.0165	0.9585
1.2603	-1.6158	2.3731	-0.55685	-0.88813	-0.039129	3.0212	-10.6088	788.3893	-56.4949	285.3213	55.2122	723.4215	-0.0592	0.0182	-0.0073	-0.0462	0.0165	0.9585
1.2716	-1.6459	2.0714	-0.42282	-0.7694	-0.17973	2.6981	-8.7729	781.2324	-57.0886	282.3126	54.8657	713.7677	-0.0592	0.0182	-0.0073	-0.0462	0.0165	0.9585
1.2829	-1.6564	1.4711	-0.22081	-0.53213	-0.39092	2.0318	-6.5815	772.8156	-57.48	278.9059	54.2101	702.9558	-0.0592	0.0182	-0.0073	-0.0462	0.0165	0.9585
1.2941	-1.6777	0.49345	0.0089792	-0.1401	-0.64244	0.96565	-4.2083	763.6913	-57.6399	275.3145	53.2816	691.4922	-0.0592	0.0182	-0.0073	-0.0462	0.0165	0.9585
1.3054	-1.6734	-0.95036	0.26403	0.44013	-0.91931	-0.61022	-1.7923	754.3958	-57.5794	271.7355	52.1347	679.8692	-0.0592	0.0182	-0.0073	-0.0462	0.0165	0.9585
1.3167	-1.633	-2.8586	0.50647	1.2078	-1.1731	-2.6777	0.55652	745.3881	-57.341	268.3364	50.8302	668.4985	-0.0592	0.0182	-0.0073	-0.0462	0.0165	0.9585
1.328	-1.4605	-5.1319	0.7097	2.1187	-1.3356	-5.1421	2.8137	737.1338	-56.9899	265.2787	49.4185	657.7992	-0.0592	0.0182	-0.0073	-0.0462	0.0165	0.9585
1.3393	-1.0943	-7.4505	0.80726	3.0422	-1.2994	-7.6646	5.0069	730.081	-56.5957	262.7141	47.9361	648.158	-0.0592	0.0182	-0.0073	-0.0462	0.0165	0.9585
1.3506	-0.39823	-9.2215	0.7038	3.7365	-0.90855	-9.6348	7.196	724.6854	-56.2011	260.7953	46.3955	639.9688	-0.0592	0.0182	-0.0073	-0.0462	0.0165	0.9585
1.3619	0.7228	-9.4988	0.27287	3.8177	0.017609	-10.0251	9.4624	721.393	-55.8349	259.6655	44.8038	633.5985	-0.0592	0.0182	-0.0073	-0.0462	0.0165	0.9585
1.3731	2.3884	-6.9218	-0.6689	2.7342	1.7104	-7.384	11.8457	720.5517	-55.4813	259.4306	43.1474	629.3393	-0.0592	0.0182	-0.0073	-0.0462	0.0165	0.9585
1.3844	4.6066	0.29454	-2.2929	-0.22941	4.3558	0.23338	14.3686	722.257	-55.0981	260.103	41.4002	627.2812	-0.0592	0.0182	-0.0073	-0.0462	0.0165	0.9585
1.3957	7.2993	14.2486	-4.7837	-5.9138	8.1038	15.0866	16.9958	726.1128	-54.6176	261.5167	39.5322	627.1091	-0.0592	0.0182	-0.0073	-0.0462	0.0165	0.9585
1.407	10.1293	37.0701	-8.2043	-15.163	12.8865	39.5066	19.73	731.0737	-53.9632	263.2729	37.4945	627.9487	-0.0592	0.0182	-0.0073	-0.0462	0.0165	0.9585
1.4183	12.498	70.3854	-12.4807	-28.6112	18.3627	75.2776	22.5769	735.4575	-53.0767	264.7477	35.2457	628.3912	-0.0592	0.0182	-0.0073	-0.0462	0.0165	0.9585
1.4296	13.3591	114.4761	-17.2141	-46.3364	23.6694	122.781	25.5386	737.1241	-51.8942	265.1629	32.7371	626.6338	-0.0592	0.0182	-0.0073	-0.0462	0.0165	0.9585
1.4409	11.3399	167.1818	-21.5752	-67.423	27.3466	179.7905	28.5399	733.8164	-50.3211	263.71	29.9192	620.8178	-0.0592	0.0182	-0.0073	-0.0462	0.0165	0.9585
1.4521	5.2925	222.9378	-24.2445	-89.5696	27.519	240.4154	31.4557	723.4699	-48.2248	259.6667	26.7402	609.257	-0.0592	0.0182	-0.0073	-0.0462	0.0165	0.9585
1.4634	-3.8267	273.4678	-23.3675	-109.3782	22.6213	295.7873	34.0646	704.5645	-45.4965	252.5166	23.2061	590.7534	-0.0592	0.0182	-0.0073	-0.0462	0.0165	0.9585
1.4747	-13.2604	311.9362	-18.0817	-124.0943	12.9465	338.3739	36.196	676.374	-42.1371	242.0311	19.4071	564.7598	-0.0592	0.0182	-0.0073	-0.0462	0.0165	0.9585
1.486	-21.1354	336.7298	-10.0046	-133.1355	0.96984	366.1467	37.678	639.2152	-38.2862	228.3383	15.5215	531.6232	-0.0592	0.0182	-0.0073	-0.0462	0.0165	0.9585
1.4973	-26.4281	350.3874	-0.2918	-137.5919	-11.6201	381.6263	38.5006	594.2376	-34.2538	211.86	11.8052	492.3415	-0.0592	0.0182	-0.0073	-0.0462	0.0165	0.9585
1.5086	-28.9768	357.1865	9.1758	-139.2872	-22.7761	389.3952	38.7029	543.2206	-30.3124	193.2431	8.4572	448.4356	-0.0592	0.0182	-0.0073	-0.0462	0.0165	0.9585
1.5199	-29.3719	361.3597	17.3304	-140.0033	-31.6009	393.9618	38.3395	488.2866	-26.5437	173.2688	5.5232	401.677	-0.0592	0.0182	-0.0073	-0.0462	0.0165	0.9585
